<svg width="16" height="16" viewBox="0 0 16 16" fill="none" xmlns="http://www.w3.org/2000/svg">
<rect width="16" height="16" fill="white"/>
<path d="M2 6H7V7H2V6Z" fill="black"/>
<path d="M2 2H7V3H2V2Z" fill="black"/>
<path d="M2 2H3V7H2V2Z" fill="black"/>
<path d="M6 2H7V7H6V2Z" fill="black"/>
<path d="M2 9H7V10L2 10.03V9Z" fill="black"/>
<path d="M2 9H3V14H2V9Z" fill="black"/>
<path d="M2 11H7V12H2V11Z" fill="black"/>
<path d="M9 2H14V3.02995H9V2Z" fill="black"/>
<path d="M9 2H10V4.00009V5.03006L9 5.03008V2Z" fill="black"/>
<path d="M13 4.00002L14 4L14 7L13 7.00599V4.00002Z" fill="black"/>
<path d="M9 4.00009L14 4L13.9999 5.03008H9V4.00009Z" fill="black"/>
<path d="M9 6H14L14 7L9 7.02996V6Z" fill="black"/>
<path d="M9 9H10V10.5451V12.0001H8.99121L9 9Z" fill="black"/>
<path d="M13 11H14L14 14H13V11Z" fill="black"/>
<path d="M9 11H14V12L11.4277 12.0001H8.99121L9 11Z" fill="black"/>
<path d="M13 9H14L14 12L13 12V9Z" fill="black"/>
<path d="M9 9H14L13.9999 10.03L8.99121 10L8.9956 9.5L9 9Z" fill="black"/>
<path d="M9 11H10V14H8.97362L9 11Z" fill="black"/>
</svg>
