<svg width="39" height="39" viewBox="0 0 39 39" fill="none" xmlns="http://www.w3.org/2000/svg">
<rect width="39" height="39" fill="white"/>
<path d="M5.74112 15.7832H18.2489V18.2937H5.74112V15.7832Z" fill="black"/>
<path d="M5.74112 5.74109H18.2489V8.2516H5.74112V5.74109Z" fill="black"/>
<path d="M5.74112 5.74109H8.24268V18.2937L5.74112 18.2937V5.74109Z" fill="black"/>
<path d="M15.7486 5.74109H18.2501V18.2937H15.7486V5.74109Z" fill="black"/>
<path d="M5.74112 20.8041H18.2489V23.3146H5.74112V20.8041Z" fill="black"/>
<path d="M5.74112 20.8041H8.24268V33.3567H5.74112V20.8041Z" fill="black"/>
<path d="M5.74112 25.8256H18.2489V28.3361H5.74112V25.8256Z" fill="black"/>
<path d="M20.7508 5.74109H33.2586V8.2516H20.7508V5.74109Z" fill="black"/>
<path d="M20.7508 5.74109H23.2526V9.50722V13.2733H20.7508V5.74109Z" fill="black"/>
<path d="M30.7571 10.7626H33.2589V18.2948H30.7571V10.7626Z" fill="black"/>
<path d="M20.7508 10.7629L33.2589 10.7626L33.2586 13.2734L20.7508 13.2733V10.7629Z" fill="black"/>
<path d="M20.7508 15.7832H33.2586V18.2937H20.7508V15.7832Z" fill="black"/>
<path d="M20.7508 20.8041H23.2526V28.3363H20.7508V20.8041Z" fill="black"/>
<path d="M30.7571 25.8256H33.2589V33.3578H30.7571V25.8256Z" fill="black"/>
<path d="M20.7508 25.8256H33.2589L33.2586 28.3361L20.7508 28.3363V25.8256Z" fill="black"/>
<path d="M30.7571 20.8041H33.2589L33.2586 28.3361L30.7571 28.3363V20.8041Z" fill="black"/>
<path d="M20.7508 20.5H33.2589L33.2586 23.0105L20.7508 23.0108V20.5Z" fill="black"/>
<path d="M20.7508 25.8256H23.2526V33.3578H20.7508V25.8256Z" fill="black"/>
</svg>
